<svg width="16" height="13" viewBox="0 0 16 13" fill="none" xmlns="http://www.w3.org/2000/svg" aria-hidden="true" class="mr-2 xs:w-4"><path class="transition-all duration-200 group-hover/coverImageBtn:fill-dark" d="M2.78027 11.1777H13.8066C14.0983 11.1777 14.333 11.0911 14.5107 10.918C14.6885 10.7448 14.7773 10.5078 14.7773 10.207V9.16113L11.8789 6.48145C11.7285 6.34017 11.5645 6.23535 11.3867 6.16699C11.209 6.09408 11.0312 6.05762 10.8535 6.05762C10.4798 6.05762 10.1357 6.19661 9.82129 6.47461L6.75195 9.20215L5.51465 8.09473C5.2321 7.83496 4.92448 7.70508 4.5918 7.70508C4.44596 7.70508 4.29785 7.73698 4.14746 7.80078C4.00163 7.86458 3.85807 7.95801 3.7168 8.08105L1.81641 9.74219V10.1934C1.81641 10.5033 1.90072 10.7448 2.06934 10.918C2.24251 11.0911 2.47949 11.1777 2.78027 11.1777ZM5.60352 6.48145C5.89062 6.48145 6.15495 6.40853 6.39648 6.2627C6.64258 6.11686 6.83626 5.92318 6.97754 5.68164C7.12337 5.4401 7.19629 5.17122 7.19629 4.875C7.19629 4.58333 7.12337 4.31673 6.97754 4.0752C6.83626 3.8291 6.64258 3.63314 6.39648 3.4873C6.15495 3.34147 5.89062 3.26855 5.60352 3.26855C5.30273 3.26855 5.03158 3.34147 4.79004 3.4873C4.5485 3.63314 4.35482 3.8291 4.20898 4.0752C4.06771 4.31673 3.99707 4.58333 3.99707 4.875C3.99707 5.17122 4.06771 5.4401 4.20898 5.68164C4.35482 5.92318 4.5485 6.11686 4.79004 6.2627C5.03158 6.40853 5.30273 6.48145 5.60352 6.48145ZM2.72559 12.333C2.04199 12.333 1.52474 12.1598 1.17383 11.8135C0.822917 11.4717 0.647461 10.9613 0.647461 10.2822V2.39355C0.647461 1.71452 0.822917 1.2041 1.17383 0.862305C1.52474 0.515951 2.04199 0.342773 2.72559 0.342773H13.8545C14.5472 0.342773 15.0667 0.515951 15.4131 0.862305C15.7594 1.2041 15.9326 1.71452 15.9326 2.39355V10.2822C15.9326 10.9613 15.7594 11.4717 15.4131 11.8135C15.0667 12.1598 14.5472 12.333 13.8545 12.333H2.72559Z" fill="#717171"></path></svg>